<?xml version="1.0" encoding="UTF-8"?>
<svg width="16px" height="16px" viewBox="0 0 16 16" version="1.1" xmlns="http://www.w3.org/2000/svg" xmlns:xlink="http://www.w3.org/1999/xlink">
    <!-- Generator: Sketch 52.3 (67297) - http://www.bohemiancoding.com/sketch -->
    <title>grass_times30 copy</title>
    <desc>Created with Sketch.</desc>
    <g id="icon" stroke="none" stroke-width="1" fill="none" fill-rule="evenodd">
        <g id="edict" fill="#333333" fill-rule="nonzero">
            <path d="M3.36820652,12.1715353 C3.40625,12.1715353 3.44429348,12.1667799 3.48233696,12.1620245 L6.68036685,11.6008832 C6.71841033,11.59375 6.75407609,11.577106 6.78023098,11.5485734 L14.8430707,3.4857337 C14.9167799,3.41202446 14.9167799,3.29076087 14.8430707,3.21705163 L11.6807065,0.0546875 C11.6450408,0.0190217391 11.5974864,0 11.5451766,0 C11.4928668,0 11.4453125,0.0190217391 11.4096467,0.0546875 L3.34918478,8.11514946 C3.32065217,8.14368207 3.30400815,8.17697011 3.296875,8.21501359 L2.7357337,11.4154212 C2.70006793,11.627038 2.7642663,11.8315217 2.9140625,11.9813179 C3.04008152,12.1049592 3.19701087,12.1715353 3.36820652,12.1715353 Z M4.6497962,8.85461957 L11.5499321,1.95686141 L12.9432745,3.3502038 L6.04313859,10.247962 L4.35258152,10.5475543 L4.6497962,8.85461957 Z M12.6745924,15.2150136 L1.85597826,15.2150136 C1.3828125,15.2150136 1,14.8322011 1,14.3590353 C1,13.8858696 1.3828125,13.5030571 1.85597826,13.5030571 L12.6745924,13.5030571 C13.1477582,13.5030571 13.5305707,13.8858696 13.5305707,14.3590353 C13.5305707,14.8322011 13.1477582,15.2150136 12.6745924,15.2150136 Z" id="Shape"></path>
        </g>
    </g>
</svg>