<svg xmlns="http://www.w3.org/2000/svg" width="16" height="16" viewBox="0 0 16 16">
    <g fill="none" fill-rule="evenodd" stroke="#000">
        <path d="M7.973 7.678a.271.271 0 0 1-.015.016c-.457.442-3.123.366-4.861-1.49C1.938 4.966 1.239 3.244 1 1.039c2.052-.191 3.718.326 5 1.551 1.136 1.087 1.773 2.52 2.01 3.6.25-1.07.883-2.458 1.99-3.518 1.282-1.225 2.948-1.743 5-1.552-.239 2.206-.938 3.928-2.097 5.166-1.738 1.856-4.404 1.932-4.86 1.49a.352.352 0 0 1-.07-.098z"/>
        <path stroke-linecap="round" stroke-linejoin="round" d="M8 6v9.422"/>
        <path fill="#FFF" d="M8.01 4.792c.56 0 1.034-.943 1.034-1.896 0-.635-.345-1.267-1.033-1.896C7.337 1.515 7 2.09 7 2.725c0 .953.453 2.067 1.01 2.067z"/>
        <g stroke-linecap="round" stroke-linejoin="round">
            <path d="M8 7.792c1.766-.75 3.073-1.854 3.92-3.31M4 4c1.82 1.21 3.153 2.544 4 4"/>
        </g>
    </g>
</svg>
